# xmcd
# 
# Track frame offsets:
#     150
#     14610
#     37938
#     55418
#     88430
#     118042
#     143025
#     158861
#     182599
#     200244
#     209182
#     231046
# 
# Disc length: 3234
# 
# Revision: 0
# Processed by: cddbd v1.5.2PL0 Copyright (c) Steve Scherf et al.
# Submitted via: fre:ac v1.0.31
# 
DISCID=b40ca00c
DTITLE=Timo Maas - Pictures
DYEAR=2005
DGENRE=Jazz
TTITLE0=Slip In Electro Kid
TTITLE1=Pictures
TTITLE2=First Day
TTITLE3=High Drama
TTITLE4=Enter My World
TTITLE5=4 Ur Ears
TTITLE6=Release
TTITLE7=Big Chevy
TTITLE8=Devil Feel
TTITLE9=Burn Out
TTITLE10=Like Siamese
TTITLE11=Haven't We Met Before
EXTD=YEAR: 2005
EXTT0=
EXTT1=
EXTT2=
EXTT3=
EXTT4=
EXTT5=
EXTT6=
EXTT7=
EXTT8=
EXTT9=
EXTT10=
EXTT11=
PLAYORDER=
